<mxfile host="app.diagrams.net" modified="2024-06-04T15:57:56.497Z" agent="Mozilla/5.0 (Macintosh; Intel Mac OS X 10_15_7) AppleWebKit/537.36 (KHTML, like Gecko) Chrome/125.0.0.0 Safari/537.36" etag="sH6k9wrXdeqOFLhLk5HB" version="24.4.13" type="device">
  <diagram name="Page-1" id="WrnxXbnDSW6of7R_TvUe">
    <mxGraphModel dx="12940" dy="6870" grid="1" gridSize="10" guides="1" tooltips="1" connect="1" arrows="1" fold="1" page="1" pageScale="1" pageWidth="850" pageHeight="1100" math="0" shadow="0">
      <root>
        <mxCell id="0" />
        <mxCell id="1" parent="0" />
        <mxCell id="zmFPVfZqV1AZNydZU7SP-4" value="" style="shape=image;verticalLabelPosition=bottom;labelBackgroundColor=default;verticalAlign=top;aspect=fixed;imageAspect=0;image=https://www.woodbrass.com/images/woodbrass/3ZOOM+LIVETRACK+L8.JPG;clipPath=inset(2% 1.56% 2% 2.25%);" vertex="1" parent="1">
          <mxGeometry x="3249" y="541" width="1158.3333333333333" height="1200" as="geometry" />
        </mxCell>
        <mxCell id="zmFPVfZqV1AZNydZU7SP-5" value="" style="shape=image;verticalLabelPosition=bottom;labelBackgroundColor=default;verticalAlign=top;aspect=fixed;imageAspect=0;image=https://palf.fr/5356-large_default/zoia.jpg;clipPath=inset(27.67% 17.33% 27.33% 17.33%);" vertex="1" parent="1">
          <mxGeometry x="791.5" y="2260" width="897" height="617.8316326530612" as="geometry" />
        </mxCell>
        <mxCell id="zmFPVfZqV1AZNydZU7SP-6" value="" style="shape=image;verticalLabelPosition=bottom;labelBackgroundColor=default;verticalAlign=top;aspect=fixed;imageAspect=0;image=https://images.musicstore.de/images/1280/korg-volca-modular_1_SYN0006844-000.jpg;clipPath=inset(21.67% 3% 22% 2%);" vertex="1" parent="1">
          <mxGeometry x="780" y="3010" width="920" height="545.5438596491229" as="geometry" />
        </mxCell>
        <mxCell id="zmFPVfZqV1AZNydZU7SP-12" value="" style="endArrow=none;html=1;rounded=0;exitX=0.293;exitY=0.224;exitDx=0;exitDy=0;exitPerimeter=0;strokeWidth=10;strokeColor=#FF00FF;shadow=1;flowAnimation=1;" edge="1" parent="1">
          <mxGeometry width="50" height="50" relative="1" as="geometry">
            <mxPoint x="-2940.000000000001" y="-289.9999999999998" as="sourcePoint" />
            <mxPoint x="-2730" y="-290" as="targetPoint" />
          </mxGeometry>
        </mxCell>
        <mxCell id="zmFPVfZqV1AZNydZU7SP-18" value="&lt;font style=&quot;font-size: 100px;&quot;&gt;: &lt;font color=&quot;#ff00ff&quot;&gt;Audio&lt;/font&gt;&lt;/font&gt;" style="text;html=1;align=center;verticalAlign=middle;whiteSpace=wrap;rounded=0;" vertex="1" parent="1">
          <mxGeometry x="-2690" y="-450" width="350" height="320" as="geometry" />
        </mxCell>
        <mxCell id="zmFPVfZqV1AZNydZU7SP-21" value="" style="endArrow=none;html=1;rounded=0;exitX=0.293;exitY=0.224;exitDx=0;exitDy=0;exitPerimeter=0;strokeWidth=10;strokeColor=#007FFF;" edge="1" parent="1">
          <mxGeometry width="50" height="50" relative="1" as="geometry">
            <mxPoint x="-2940.000000000001" y="-99.99999999999977" as="sourcePoint" />
            <mxPoint x="-2730" y="-100" as="targetPoint" />
          </mxGeometry>
        </mxCell>
        <mxCell id="zmFPVfZqV1AZNydZU7SP-22" value="&lt;font style=&quot;font-size: 100px;&quot;&gt;: &lt;font color=&quot;#007fff&quot;&gt;MIDI&lt;/font&gt;&lt;/font&gt;" style="text;html=1;align=center;verticalAlign=middle;whiteSpace=wrap;rounded=0;" vertex="1" parent="1">
          <mxGeometry x="-2690" y="-260" width="350" height="320" as="geometry" />
        </mxCell>
        <mxCell id="zmFPVfZqV1AZNydZU7SP-28" value="" style="shape=image;verticalLabelPosition=bottom;labelBackgroundColor=default;verticalAlign=top;aspect=fixed;imageAspect=0;image=https://img.audiofanzine.com/images/u/product/normal/korg-electribe-emx1-8217.jpg;" vertex="1" parent="1">
          <mxGeometry x="2880" y="2210" width="1818.18" height="1300" as="geometry" />
        </mxCell>
        <mxCell id="zmFPVfZqV1AZNydZU7SP-29" value="" style="endArrow=classic;html=1;rounded=0;strokeWidth=10;strokeColor=#FF00FF;shadow=1;flowAnimation=1;endFill=1;" edge="1" parent="1">
          <mxGeometry width="50" height="50" relative="1" as="geometry">
            <mxPoint x="1840" y="1860" as="sourcePoint" />
            <mxPoint x="3780" y="540" as="targetPoint" />
            <Array as="points">
              <mxPoint x="1840" y="320" />
              <mxPoint x="3780" y="320" />
            </Array>
          </mxGeometry>
        </mxCell>
        <mxCell id="zmFPVfZqV1AZNydZU7SP-30" value="&lt;font color=&quot;#ffffff&quot; style=&quot;font-size: 50px;&quot;&gt;Korg Volca Modular - Dry&lt;/font&gt;" style="text;html=1;align=center;verticalAlign=middle;whiteSpace=wrap;rounded=0;fontFamily=Helvetica;fontSize=11;fontColor=default;labelBackgroundColor=#626168;rotation=90;" vertex="1" parent="1">
          <mxGeometry x="3468.09" y="1149" width="630" height="130" as="geometry" />
        </mxCell>
        <mxCell id="zmFPVfZqV1AZNydZU7SP-35" value="&lt;font color=&quot;#ffffff&quot; style=&quot;font-size: 50px;&quot;&gt;Korg Kaossilator Pro&lt;/font&gt;" style="text;html=1;align=center;verticalAlign=middle;whiteSpace=wrap;rounded=0;fontFamily=Helvetica;fontSize=11;fontColor=default;labelBackgroundColor=#626168;rotation=90;" vertex="1" parent="1">
          <mxGeometry x="3387" y="1099" width="630" height="130" as="geometry" />
        </mxCell>
        <mxCell id="zmFPVfZqV1AZNydZU7SP-36" value="&lt;font color=&quot;#ffffff&quot; style=&quot;font-size: 50px;&quot;&gt;Zoia Empress&lt;/font&gt;" style="text;html=1;align=center;verticalAlign=middle;whiteSpace=wrap;rounded=0;fontFamily=Helvetica;fontSize=11;fontColor=default;labelBackgroundColor=#626168;rotation=90;" vertex="1" parent="1">
          <mxGeometry x="3314" y="1025" width="630" height="130" as="geometry" />
        </mxCell>
        <mxCell id="zmFPVfZqV1AZNydZU7SP-37" value="" style="endArrow=classic;html=1;rounded=0;shadow=1;strokeColor=#FF00FF;strokeWidth=10;align=center;verticalAlign=middle;fontFamily=Helvetica;fontSize=11;fontColor=default;labelBackgroundColor=default;flowAnimation=1;endFill=1;" edge="1" parent="1">
          <mxGeometry width="50" height="50" relative="1" as="geometry">
            <mxPoint x="3080" y="2200" as="sourcePoint" />
            <mxPoint x="3330" y="530" as="targetPoint" />
            <Array as="points">
              <mxPoint x="3080" y="10" />
              <mxPoint x="3330" y="10" />
            </Array>
          </mxGeometry>
        </mxCell>
        <mxCell id="zmFPVfZqV1AZNydZU7SP-38" value="&lt;font color=&quot;#ffffff&quot; style=&quot;font-size: 50px;&quot;&gt;Korg EMX-1 - Left Output (Kicks)&lt;/font&gt;" style="text;html=1;align=center;verticalAlign=middle;whiteSpace=wrap;rounded=0;fontFamily=Helvetica;fontSize=11;fontColor=default;labelBackgroundColor=#626168;rotation=90;" vertex="1" parent="1">
          <mxGeometry x="2928" y="1231" width="816" height="130" as="geometry" />
        </mxCell>
        <mxCell id="zmFPVfZqV1AZNydZU7SP-39" value="" style="endArrow=classic;html=1;rounded=0;shadow=1;strokeColor=#FF00FF;strokeWidth=10;align=center;verticalAlign=middle;fontFamily=Helvetica;fontSize=11;fontColor=default;labelBackgroundColor=default;flowAnimation=1;endFill=1;" edge="1" parent="1">
          <mxGeometry width="50" height="50" relative="1" as="geometry">
            <mxPoint x="3166" y="2201" as="sourcePoint" />
            <mxPoint x="3416" y="531" as="targetPoint" />
            <Array as="points">
              <mxPoint x="3166" y="41" />
              <mxPoint x="3416" y="41" />
            </Array>
          </mxGeometry>
        </mxCell>
        <mxCell id="zmFPVfZqV1AZNydZU7SP-40" value="&lt;font color=&quot;#ffffff&quot; style=&quot;font-size: 50px;&quot;&gt;Korg EMX-1 - Right Output (Drums)&lt;/font&gt;" style="text;html=1;align=center;verticalAlign=middle;whiteSpace=wrap;rounded=0;fontFamily=Helvetica;fontSize=11;fontColor=default;labelBackgroundColor=#626168;rotation=90;" vertex="1" parent="1">
          <mxGeometry x="3001" y="1236" width="816" height="130" as="geometry" />
        </mxCell>
        <mxCell id="zmFPVfZqV1AZNydZU7SP-42" value="" style="endArrow=none;html=1;rounded=0;exitX=0.293;exitY=0.224;exitDx=0;exitDy=0;exitPerimeter=0;strokeWidth=10;strokeColor=#FFFFFF;fontColor=none;noLabel=1;" edge="1" parent="1">
          <mxGeometry width="50" height="50" relative="1" as="geometry">
            <mxPoint x="-2730" y="90" as="sourcePoint" />
            <mxPoint x="-2940.000000000001" y="90.00000000000023" as="targetPoint" />
          </mxGeometry>
        </mxCell>
        <mxCell id="zmFPVfZqV1AZNydZU7SP-43" value="&lt;font style=&quot;font-size: 100px;&quot;&gt;:&lt;/font&gt;&lt;font color=&quot;#ffffff&quot; style=&quot;font-size: 100px;&quot;&gt; CV/GATE&lt;/font&gt;" style="text;html=1;align=center;verticalAlign=middle;whiteSpace=wrap;rounded=0;" vertex="1" parent="1">
          <mxGeometry x="-2690" y="-70" width="590" height="320" as="geometry" />
        </mxCell>
        <mxCell id="zmFPVfZqV1AZNydZU7SP-48" value="" style="shape=image;verticalLabelPosition=bottom;labelBackgroundColor=default;verticalAlign=top;aspect=fixed;imageAspect=0;image=https://i.ebayimg.com/images/g/Me4AAOSwbxdkV7sU/s-l1200.jpg;clipPath=inset(32.67% 16.67% 22% 16.67%);" vertex="1" parent="1">
          <mxGeometry x="2030" y="2610" width="582.63" height="417.06237170377386" as="geometry" />
        </mxCell>
        <mxCell id="zmFPVfZqV1AZNydZU7SP-52" value="" style="shape=image;verticalLabelPosition=bottom;labelBackgroundColor=default;verticalAlign=top;aspect=fixed;imageAspect=0;image=https://www.steepst.com.au/cdn/shop/products/0-coast_cropped.png;" vertex="1" parent="1">
          <mxGeometry x="-640" y="2916.77" width="1200" height="732" as="geometry" />
        </mxCell>
        <mxCell id="zmFPVfZqV1AZNydZU7SP-58" value="&lt;span style=&quot;font-size: 100px;&quot;&gt;:&lt;font color=&quot;#b37eff&quot;&gt; Audio Y Split&lt;/font&gt;&lt;/span&gt;" style="text;html=1;align=center;verticalAlign=middle;whiteSpace=wrap;rounded=0;" vertex="1" parent="1">
          <mxGeometry x="-2814" y="120" width="840" height="320" as="geometry" />
        </mxCell>
        <mxCell id="zmFPVfZqV1AZNydZU7SP-67" value="" style="sketch=0;outlineConnect=0;fontColor=#232F3E;gradientColor=none;fillColor=#8C4FFF;strokeColor=none;dashed=0;verticalLabelPosition=bottom;verticalAlign=top;align=center;html=1;fontSize=12;fontStyle=0;aspect=fixed;pointerEvents=1;shape=mxgraph.aws4.customer_gateway;fontFamily=Helvetica;labelBackgroundColor=default;" vertex="1" parent="1">
          <mxGeometry x="-2910" y="200.5" width="159" height="159" as="geometry" />
        </mxCell>
        <mxCell id="zmFPVfZqV1AZNydZU7SP-68" value="" style="endArrow=classic;html=1;rounded=0;shadow=1;strokeColor=#FF00FF;strokeWidth=10;align=center;verticalAlign=middle;fontFamily=Helvetica;fontSize=11;fontColor=default;labelBackgroundColor=default;flowAnimation=1;entryX=0.25;entryY=0;entryDx=0;entryDy=0;endFill=1;exitX=0.999;exitY=0.672;exitDx=0;exitDy=0;exitPerimeter=0;" edge="1" parent="1" source="zmFPVfZqV1AZNydZU7SP-52" target="zmFPVfZqV1AZNydZU7SP-48">
          <mxGeometry width="50" height="50" relative="1" as="geometry">
            <mxPoint x="565" y="3417" as="sourcePoint" />
            <mxPoint x="1820" y="2610" as="targetPoint" />
            <Array as="points">
              <mxPoint x="680" y="3409" />
              <mxPoint x="690" y="1760" />
              <mxPoint x="2176" y="1750" />
            </Array>
          </mxGeometry>
        </mxCell>
        <mxCell id="zmFPVfZqV1AZNydZU7SP-71" value="" style="endArrow=classic;html=1;rounded=0;shadow=1;strokeColor=#FF00FF;strokeWidth=10;align=center;verticalAlign=middle;fontFamily=Helvetica;fontSize=11;fontColor=default;labelBackgroundColor=default;flowAnimation=1;entryX=0.543;entryY=0.001;entryDx=0;entryDy=0;entryPerimeter=0;endFill=1;" edge="1" parent="1" source="zmFPVfZqV1AZNydZU7SP-72">
          <mxGeometry width="50" height="50" relative="1" as="geometry">
            <mxPoint x="2176" y="1750" as="sourcePoint" />
            <mxPoint x="3853.165" y="542.2" as="targetPoint" />
            <Array as="points">
              <mxPoint x="2176" y="400" />
              <mxPoint x="3853" y="400" />
            </Array>
          </mxGeometry>
        </mxCell>
        <mxCell id="zmFPVfZqV1AZNydZU7SP-73" value="" style="endArrow=none;html=1;rounded=0;shadow=1;strokeColor=#FF00FF;strokeWidth=10;align=center;verticalAlign=middle;fontFamily=Helvetica;fontSize=11;fontColor=default;labelBackgroundColor=default;flowAnimation=1;entryX=0.543;entryY=0.001;entryDx=0;entryDy=0;entryPerimeter=0;" edge="1" parent="1" target="zmFPVfZqV1AZNydZU7SP-72">
          <mxGeometry width="50" height="50" relative="1" as="geometry">
            <mxPoint x="2176" y="1750" as="sourcePoint" />
            <mxPoint x="3853.165" y="542.2" as="targetPoint" />
            <Array as="points" />
          </mxGeometry>
        </mxCell>
        <mxCell id="zmFPVfZqV1AZNydZU7SP-72" value="" style="sketch=0;outlineConnect=0;fontColor=#232F3E;gradientColor=none;fillColor=#8C4FFF;strokeColor=none;dashed=0;verticalLabelPosition=bottom;verticalAlign=top;align=center;html=1;fontSize=12;fontStyle=0;aspect=fixed;pointerEvents=1;shape=mxgraph.aws4.customer_gateway;fontFamily=Helvetica;labelBackgroundColor=default;" vertex="1" parent="1">
          <mxGeometry x="2136" y="1720" width="78" height="78" as="geometry" />
        </mxCell>
        <mxCell id="zmFPVfZqV1AZNydZU7SP-74" value="&lt;font color=&quot;#ffffff&quot; style=&quot;font-size: 50px;&quot;&gt;Make Noise 0-Coast - Dry&lt;/font&gt;" style="text;html=1;align=center;verticalAlign=middle;whiteSpace=wrap;rounded=0;fontFamily=Helvetica;fontSize=11;fontColor=default;labelBackgroundColor=#626168;rotation=90;" vertex="1" parent="1">
          <mxGeometry x="3553" y="1156" width="630" height="130" as="geometry" />
        </mxCell>
        <mxCell id="zmFPVfZqV1AZNydZU7SP-75" value="" style="shape=image;verticalLabelPosition=bottom;labelBackgroundColor=default;verticalAlign=top;aspect=fixed;imageAspect=0;image=https://www.woodbrass.com/images/woodbrass/2KORG+VOLCA+BASS.JPG;clipPath=inset(3.3% 3% 3.85% 2.33%);" vertex="1" parent="1">
          <mxGeometry x="780" y="1070" width="923.08" height="549.2651028169015" as="geometry" />
        </mxCell>
        <mxCell id="zmFPVfZqV1AZNydZU7SP-76" value="" style="endArrow=classic;html=1;rounded=0;shadow=1;strokeColor=#FF00FF;strokeWidth=10;align=center;verticalAlign=middle;fontFamily=Helvetica;fontSize=11;fontColor=default;labelBackgroundColor=default;flowAnimation=1;exitX=0.896;exitY=0.11;exitDx=0;exitDy=0;exitPerimeter=0;entryX=0.199;entryY=-0.008;entryDx=0;entryDy=0;entryPerimeter=0;endFill=1;" edge="1" parent="1" source="zmFPVfZqV1AZNydZU7SP-75" target="zmFPVfZqV1AZNydZU7SP-4">
          <mxGeometry width="50" height="50" relative="1" as="geometry">
            <mxPoint x="2210" y="1500" as="sourcePoint" />
            <mxPoint x="2950" y="980" as="targetPoint" />
            <Array as="points">
              <mxPoint x="1607" y="110" />
              <mxPoint x="3480" y="110" />
            </Array>
          </mxGeometry>
        </mxCell>
        <mxCell id="zmFPVfZqV1AZNydZU7SP-77" value="" style="curved=1;endArrow=classic;html=1;rounded=0;shadow=1;strokeWidth=10;align=center;verticalAlign=middle;fontFamily=Helvetica;fontSize=11;fontColor=default;labelBackgroundColor=default;flowAnimation=0;exitX=0.834;exitY=0.11;exitDx=0;exitDy=0;exitPerimeter=0;entryX=0.783;entryY=0.11;entryDx=0;entryDy=0;entryPerimeter=0;strokeColor=#FFFFFF;" edge="1" parent="1" source="zmFPVfZqV1AZNydZU7SP-75" target="zmFPVfZqV1AZNydZU7SP-6">
          <mxGeometry width="50" height="50" relative="1" as="geometry">
            <mxPoint x="1890" y="2210" as="sourcePoint" />
            <mxPoint x="1940" y="2160" as="targetPoint" />
            <Array as="points">
              <mxPoint x="2070" y="1990" />
              <mxPoint x="1880" y="2550" />
            </Array>
          </mxGeometry>
        </mxCell>
        <mxCell id="zmFPVfZqV1AZNydZU7SP-78" value="" style="shape=image;verticalLabelPosition=bottom;labelBackgroundColor=default;verticalAlign=top;aspect=fixed;imageAspect=0;image=https://steelmusic.fr/13157-thickbox_default/roland-tb-03.jpg;clipPath=inset(35% 1.29% 34.33% 0.86%);" vertex="1" parent="1">
          <mxGeometry x="-720" y="2120" width="1332.39" height="540" as="geometry" />
        </mxCell>
        <mxCell id="zmFPVfZqV1AZNydZU7SP-79" value="" style="shape=image;verticalLabelPosition=bottom;labelBackgroundColor=default;verticalAlign=top;aspect=fixed;imageAspect=0;image=https://img.audiofanzine.com/images/u/product/normal/boss-gp-20-amp-factory-652.jpg;clipPath=inset(0.38% 2.67% 2.65% 2.33%);" vertex="1" parent="1">
          <mxGeometry x="-457.83" y="940" width="808.05" height="725.8273684210526" as="geometry" />
        </mxCell>
        <mxCell id="zmFPVfZqV1AZNydZU7SP-80" value="" style="endArrow=classic;html=1;rounded=0;shadow=1;strokeColor=#FF00FF;strokeWidth=10;align=center;verticalAlign=middle;fontFamily=Helvetica;fontSize=11;fontColor=default;labelBackgroundColor=default;flowAnimation=1;exitX=0.645;exitY=-0.004;exitDx=0;exitDy=0;exitPerimeter=0;endFill=1;" edge="1" parent="1" source="zmFPVfZqV1AZNydZU7SP-78">
          <mxGeometry width="50" height="50" relative="1" as="geometry">
            <mxPoint x="320" y="2030" as="sourcePoint" />
            <mxPoint x="250" y="930" as="targetPoint" />
            <Array as="points">
              <mxPoint x="139" y="1850" />
              <mxPoint x="480" y="1850" />
              <mxPoint x="480" y="790" />
              <mxPoint x="250" y="790" />
            </Array>
          </mxGeometry>
        </mxCell>
        <mxCell id="zmFPVfZqV1AZNydZU7SP-81" value="" style="endArrow=classic;html=1;rounded=0;shadow=1;strokeColor=#FF00FF;strokeWidth=10;align=center;verticalAlign=middle;fontFamily=Helvetica;fontSize=11;fontColor=default;labelBackgroundColor=default;flowAnimation=1;exitX=0.234;exitY=0;exitDx=0;exitDy=0;exitPerimeter=0;entryX=0.271;entryY=-0.001;entryDx=0;entryDy=0;entryPerimeter=0;endFill=1;" edge="1" parent="1" source="zmFPVfZqV1AZNydZU7SP-79" target="zmFPVfZqV1AZNydZU7SP-4">
          <mxGeometry width="50" height="50" relative="1" as="geometry">
            <mxPoint x="570" y="1120" as="sourcePoint" />
            <mxPoint x="620" y="1070" as="targetPoint" />
            <Array as="points">
              <mxPoint x="-269" y="160" />
              <mxPoint x="3563" y="160" />
            </Array>
          </mxGeometry>
        </mxCell>
        <mxCell id="zmFPVfZqV1AZNydZU7SP-82" value="&lt;font color=&quot;#ffffff&quot; style=&quot;font-size: 50px;&quot;&gt;Korg Volca Bass&lt;/font&gt;" style="text;html=1;align=center;verticalAlign=middle;whiteSpace=wrap;rounded=0;fontFamily=Helvetica;fontSize=11;fontColor=default;labelBackgroundColor=#626168;rotation=90;" vertex="1" parent="1">
          <mxGeometry x="3168" y="1049" width="630" height="130" as="geometry" />
        </mxCell>
        <mxCell id="zmFPVfZqV1AZNydZU7SP-83" value="&lt;font color=&quot;#ffffff&quot; style=&quot;font-size: 50px;&quot;&gt;Roland TB-03 + Boss GP 20&lt;/font&gt;" style="text;html=1;align=center;verticalAlign=middle;whiteSpace=wrap;rounded=0;fontFamily=Helvetica;fontSize=11;fontColor=default;labelBackgroundColor=#626168;rotation=90;" vertex="1" parent="1">
          <mxGeometry x="3176.5" y="1180" width="759" height="130" as="geometry" />
        </mxCell>
        <mxCell id="zmFPVfZqV1AZNydZU7SP-84" value="" style="endArrow=classic;html=1;rounded=0;shadow=1;strokeColor=#FF00FF;strokeWidth=10;align=center;verticalAlign=middle;fontFamily=Helvetica;fontSize=11;fontColor=default;labelBackgroundColor=default;flowAnimation=1;exitX=0.75;exitY=0;exitDx=0;exitDy=0;entryX=0.75;entryY=0;entryDx=0;entryDy=0;" edge="1" parent="1" source="zmFPVfZqV1AZNydZU7SP-48" target="zmFPVfZqV1AZNydZU7SP-5">
          <mxGeometry width="50" height="50" relative="1" as="geometry">
            <mxPoint x="3130" y="2010" as="sourcePoint" />
            <mxPoint x="3180" y="1960" as="targetPoint" />
            <Array as="points">
              <mxPoint x="2467" y="2070" />
              <mxPoint x="1464" y="2070" />
            </Array>
          </mxGeometry>
        </mxCell>
        <mxCell id="zmFPVfZqV1AZNydZU7SP-89" value="" style="endArrow=none;html=1;rounded=0;strokeWidth=10;strokeColor=#FF00FF;shadow=1;flowAnimation=1;endFill=0;exitX=0.902;exitY=0.11;exitDx=0;exitDy=0;exitPerimeter=0;" edge="1" parent="1" source="zmFPVfZqV1AZNydZU7SP-6" target="zmFPVfZqV1AZNydZU7SP-88">
          <mxGeometry width="50" height="50" relative="1" as="geometry">
            <mxPoint x="1610" y="3070" as="sourcePoint" />
            <mxPoint x="3760" y="530" as="targetPoint" />
            <Array as="points">
              <mxPoint x="1840" y="3070" />
            </Array>
          </mxGeometry>
        </mxCell>
        <mxCell id="zmFPVfZqV1AZNydZU7SP-88" value="" style="sketch=0;outlineConnect=0;fontColor=#232F3E;gradientColor=none;fillColor=#8C4FFF;strokeColor=none;dashed=0;verticalLabelPosition=bottom;verticalAlign=top;align=center;html=1;fontSize=12;fontStyle=0;aspect=fixed;pointerEvents=1;shape=mxgraph.aws4.customer_gateway;fontFamily=Helvetica;labelBackgroundColor=default;" vertex="1" parent="1">
          <mxGeometry x="1800" y="1870" width="78" height="78" as="geometry" />
        </mxCell>
        <mxCell id="zmFPVfZqV1AZNydZU7SP-90" value="" style="endArrow=classic;html=1;rounded=0;shadow=1;strokeColor=#FF00FF;strokeWidth=10;align=center;verticalAlign=middle;fontFamily=Helvetica;fontSize=11;fontColor=default;labelBackgroundColor=default;flowAnimation=1;entryX=0.307;entryY=-0.003;entryDx=0;entryDy=0;entryPerimeter=0;endFill=1;" edge="1" parent="1" source="zmFPVfZqV1AZNydZU7SP-88" target="zmFPVfZqV1AZNydZU7SP-28">
          <mxGeometry width="50" height="50" relative="1" as="geometry">
            <mxPoint x="2890" y="2290" as="sourcePoint" />
            <mxPoint x="3430" y="1909" as="targetPoint" />
            <Array as="points">
              <mxPoint x="3438" y="1909" />
            </Array>
          </mxGeometry>
        </mxCell>
        <mxCell id="zmFPVfZqV1AZNydZU7SP-91" value="" style="endArrow=classic;html=1;rounded=0;shadow=1;strokeColor=#FF00FF;strokeWidth=10;align=center;verticalAlign=middle;fontFamily=Helvetica;fontSize=11;fontColor=default;labelBackgroundColor=default;flowAnimation=1;entryX=0.112;entryY=-0.007;entryDx=0;entryDy=0;entryPerimeter=0;endFill=1;" edge="1" parent="1" target="zmFPVfZqV1AZNydZU7SP-48">
          <mxGeometry width="50" height="50" relative="1" as="geometry">
            <mxPoint x="3270" y="2200" as="sourcePoint" />
            <mxPoint x="2250" y="2100" as="targetPoint" />
            <Array as="points">
              <mxPoint x="3270" y="1980" />
              <mxPoint x="2095" y="1980" />
            </Array>
          </mxGeometry>
        </mxCell>
        <mxCell id="zmFPVfZqV1AZNydZU7SP-92" value="" style="endArrow=classic;html=1;rounded=0;shadow=1;strokeColor=#FF00FF;strokeWidth=10;align=center;verticalAlign=middle;fontFamily=Helvetica;fontSize=11;fontColor=default;labelBackgroundColor=default;flowAnimation=1;exitX=0.533;exitY=-0.017;exitDx=0;exitDy=0;exitPerimeter=0;entryX=0.331;entryY=0.001;entryDx=0;entryDy=0;entryPerimeter=0;endFill=1;" edge="1" parent="1" source="zmFPVfZqV1AZNydZU7SP-5" target="zmFPVfZqV1AZNydZU7SP-4">
          <mxGeometry width="50" height="50" relative="1" as="geometry">
            <mxPoint x="2390" y="1250" as="sourcePoint" />
            <mxPoint x="2440" y="1200" as="targetPoint" />
            <Array as="points">
              <mxPoint x="1270" y="2000" />
              <mxPoint x="2000" y="2000" />
              <mxPoint x="2000" y="200" />
              <mxPoint x="3632" y="200" />
            </Array>
          </mxGeometry>
        </mxCell>
        <mxCell id="zmFPVfZqV1AZNydZU7SP-93" value="" style="shape=image;verticalLabelPosition=bottom;labelBackgroundColor=default;verticalAlign=top;aspect=fixed;imageAspect=0;image=https://img.audiofanzine.com/images/u/product/normal/korg-kaossilator-pro-98365.jpg;clipPath=inset(11.33% 14.19% 14.67% 14.19%);" vertex="1" parent="1">
          <mxGeometry x="5880" y="962.55" width="650.07" height="680.73" as="geometry" />
        </mxCell>
        <mxCell id="zmFPVfZqV1AZNydZU7SP-95" value="" style="html=1;verticalLabelPosition=bottom;align=center;labelBackgroundColor=#ffffff;verticalAlign=top;strokeWidth=2;strokeColor=#0080F0;shadow=0;dashed=0;shape=mxgraph.ios7.icons.microphone;fontFamily=Helvetica;fontSize=11;fontColor=default;" vertex="1" parent="1">
          <mxGeometry x="7380" y="1156" width="170" height="290" as="geometry" />
        </mxCell>
        <mxCell id="zmFPVfZqV1AZNydZU7SP-96" value="" style="endArrow=classic;html=1;rounded=0;shadow=1;strokeColor=#FF00FF;strokeWidth=10;align=center;verticalAlign=middle;fontFamily=Helvetica;fontSize=11;fontColor=default;labelBackgroundColor=default;flowAnimation=1;entryX=0.925;entryY=1.004;entryDx=0;entryDy=0;entryPerimeter=0;endFill=1;" edge="1" parent="1" target="zmFPVfZqV1AZNydZU7SP-93">
          <mxGeometry width="50" height="50" relative="1" as="geometry">
            <mxPoint x="7465" y="1455" as="sourcePoint" />
            <mxPoint x="6470" y="1900" as="targetPoint" />
            <Array as="points">
              <mxPoint x="7465" y="1830" />
              <mxPoint x="6481" y="1830" />
            </Array>
          </mxGeometry>
        </mxCell>
        <mxCell id="zmFPVfZqV1AZNydZU7SP-97" value="" style="endArrow=classic;html=1;rounded=0;shadow=1;strokeColor=#FF00FF;strokeWidth=10;align=center;verticalAlign=middle;fontFamily=Helvetica;fontSize=11;fontColor=default;labelBackgroundColor=default;flowAnimation=1;exitX=0.25;exitY=0;exitDx=0;exitDy=0;entryX=0.388;entryY=-0.001;entryDx=0;entryDy=0;entryPerimeter=0;endFill=1;" edge="1" parent="1" source="zmFPVfZqV1AZNydZU7SP-93" target="zmFPVfZqV1AZNydZU7SP-4">
          <mxGeometry width="50" height="50" relative="1" as="geometry">
            <mxPoint x="5710" y="1800" as="sourcePoint" />
            <mxPoint x="4600" y="430" as="targetPoint" />
            <Array as="points">
              <mxPoint x="6043" y="240" />
              <mxPoint x="3698" y="240" />
            </Array>
          </mxGeometry>
        </mxCell>
        <mxCell id="zmFPVfZqV1AZNydZU7SP-98" value="" style="shape=image;verticalLabelPosition=bottom;labelBackgroundColor=default;verticalAlign=top;aspect=fixed;imageAspect=0;image=https://m.media-amazon.com/images/I/51W55Bj9ldL._AC_UF1000,1000_QL80_.jpg;clipPath=inset(1.39% 7.67% 13.75% 7.33%);" vertex="1" parent="1">
          <mxGeometry x="4795" y="950" width="730.49" height="610.17" as="geometry" />
        </mxCell>
        <mxCell id="zmFPVfZqV1AZNydZU7SP-99" value="" style="endArrow=classic;html=1;rounded=0;shadow=1;strokeColor=#007FFF;strokeWidth=10;align=center;verticalAlign=middle;fontFamily=Helvetica;fontSize=11;fontColor=default;labelBackgroundColor=default;flowAnimation=0;exitX=0.75;exitY=0;exitDx=0;exitDy=0;entryX=0.25;entryY=1;entryDx=0;entryDy=0;endFill=1;" edge="1" parent="1" source="zmFPVfZqV1AZNydZU7SP-28" target="zmFPVfZqV1AZNydZU7SP-98">
          <mxGeometry width="50" height="50" relative="1" as="geometry">
            <mxPoint x="4240" y="1820" as="sourcePoint" />
            <mxPoint x="4290" y="1770" as="targetPoint" />
            <Array as="points">
              <mxPoint x="4244" y="1870" />
              <mxPoint x="4978" y="1870" />
            </Array>
          </mxGeometry>
        </mxCell>
        <mxCell id="zmFPVfZqV1AZNydZU7SP-101" value="" style="endArrow=classic;html=1;rounded=0;shadow=1;strokeColor=#007FFF;strokeWidth=10;align=center;verticalAlign=middle;fontFamily=Helvetica;fontSize=11;fontColor=default;labelBackgroundColor=default;flowAnimation=0;exitX=0.5;exitY=0;exitDx=0;exitDy=0;entryX=0.682;entryY=0.164;entryDx=0;entryDy=0;entryPerimeter=0;endFill=1;" edge="1" parent="1" source="zmFPVfZqV1AZNydZU7SP-98" target="zmFPVfZqV1AZNydZU7SP-75">
          <mxGeometry width="50" height="50" relative="1" as="geometry">
            <mxPoint x="3460" y="1050" as="sourcePoint" />
            <mxPoint x="1408" y="1062" as="targetPoint" />
            <Array as="points">
              <mxPoint x="5160" y="-340" />
              <mxPoint x="1408" y="-340" />
            </Array>
          </mxGeometry>
        </mxCell>
        <mxCell id="zmFPVfZqV1AZNydZU7SP-102" value="" style="endArrow=classic;html=1;rounded=0;shadow=1;strokeColor=#007FFF;strokeWidth=10;align=center;verticalAlign=middle;fontFamily=Helvetica;fontSize=11;fontColor=default;labelBackgroundColor=default;flowAnimation=0;exitX=0.5;exitY=1;exitDx=0;exitDy=0;entryX=0;entryY=0.5;entryDx=0;entryDy=0;endFill=1;" edge="1" parent="1" source="zmFPVfZqV1AZNydZU7SP-98" target="zmFPVfZqV1AZNydZU7SP-52">
          <mxGeometry width="50" height="50" relative="1" as="geometry">
            <mxPoint x="2600" y="2570" as="sourcePoint" />
            <mxPoint x="2650" y="2520" as="targetPoint" />
            <Array as="points">
              <mxPoint x="5160" y="3710" />
              <mxPoint x="-810" y="3710" />
              <mxPoint x="-810" y="3283" />
            </Array>
          </mxGeometry>
        </mxCell>
        <mxCell id="zmFPVfZqV1AZNydZU7SP-104" value="" style="shape=image;verticalLabelPosition=bottom;labelBackgroundColor=default;verticalAlign=top;aspect=fixed;imageAspect=0;image=https://images.musicstore.de/images/1280/arturia-keystep-pro-black-edition_1_SYN0007368-001.jpg;clipPath=inset(33.33% 3.33% 32.67% 2%);" vertex="1" parent="1">
          <mxGeometry x="5980" y="2553" width="2080" height="747.0422535211268" as="geometry" />
        </mxCell>
        <mxCell id="zmFPVfZqV1AZNydZU7SP-105" value="" style="endArrow=classic;html=1;rounded=0;shadow=1;strokeColor=#007FFF;strokeWidth=10;align=center;verticalAlign=middle;fontFamily=Helvetica;fontSize=11;fontColor=default;labelBackgroundColor=default;flowAnimation=0;exitX=0.75;exitY=1;exitDx=0;exitDy=0;entryX=0.359;entryY=0;entryDx=0;entryDy=0;entryPerimeter=0;endFill=1;" edge="1" parent="1" source="zmFPVfZqV1AZNydZU7SP-98" target="zmFPVfZqV1AZNydZU7SP-104">
          <mxGeometry width="50" height="50" relative="1" as="geometry">
            <mxPoint x="3660" y="2530" as="sourcePoint" />
            <mxPoint x="3710" y="2480" as="targetPoint" />
            <Array as="points">
              <mxPoint x="5343" y="1880" />
              <mxPoint x="6727" y="1880" />
            </Array>
          </mxGeometry>
        </mxCell>
        <mxCell id="zmFPVfZqV1AZNydZU7SP-106" value="" style="endArrow=classic;html=1;rounded=0;shadow=1;strokeColor=#007FFF;strokeWidth=10;align=center;verticalAlign=middle;fontFamily=Helvetica;fontSize=11;fontColor=default;labelBackgroundColor=default;flowAnimation=0;exitX=0.28;exitY=-0.004;exitDx=0;exitDy=0;exitPerimeter=0;entryX=0.5;entryY=0;entryDx=0;entryDy=0;endFill=1;" edge="1" parent="1" source="zmFPVfZqV1AZNydZU7SP-104" target="zmFPVfZqV1AZNydZU7SP-93">
          <mxGeometry width="50" height="50" relative="1" as="geometry">
            <mxPoint x="7010" y="1820" as="sourcePoint" />
            <mxPoint x="6700" y="870" as="targetPoint" />
            <Array as="points">
              <mxPoint x="6562" y="2160" />
              <mxPoint x="6920" y="2160" />
              <mxPoint x="6920" y="550" />
              <mxPoint x="6205" y="550" />
            </Array>
          </mxGeometry>
        </mxCell>
        <mxCell id="zmFPVfZqV1AZNydZU7SP-107" value="&lt;font style=&quot;font-size: 50px;&quot;&gt;Retrokits RK 002&lt;/font&gt;" style="edgeLabel;html=1;align=center;verticalAlign=middle;resizable=0;points=[];fontFamily=Helvetica;fontSize=11;fontColor=default;labelBackgroundColor=default;" vertex="1" connectable="0" parent="zmFPVfZqV1AZNydZU7SP-106">
          <mxGeometry x="-0.075" y="-8" relative="1" as="geometry">
            <mxPoint x="-368" y="-746" as="offset" />
          </mxGeometry>
        </mxCell>
        <mxCell id="zmFPVfZqV1AZNydZU7SP-108" value="&lt;font style=&quot;font-size: 50px;&quot;&gt;Retrokits RK 002&lt;/font&gt;" style="edgeLabel;html=1;align=center;verticalAlign=middle;resizable=0;points=[];fontFamily=Helvetica;fontSize=11;fontColor=default;labelBackgroundColor=default;rotation=90;" vertex="1" connectable="0" parent="1">
          <mxGeometry x="6948" y="1301.0020361078443" as="geometry">
            <mxPoint x="-8.000000000000004" y="24" as="offset" />
          </mxGeometry>
        </mxCell>
        <mxCell id="zmFPVfZqV1AZNydZU7SP-109" value="&lt;font style=&quot;font-size: 50px;&quot;&gt;Retrokits RK 002&lt;/font&gt;" style="edgeLabel;html=1;align=center;verticalAlign=middle;resizable=0;points=[];fontFamily=Helvetica;fontSize=11;fontColor=default;labelBackgroundColor=default;rotation=-90;" vertex="1" connectable="0" parent="1">
          <mxGeometry x="6530.07" y="2350.002036107844" as="geometry">
            <mxPoint x="-8.000000000000004" y="24" as="offset" />
          </mxGeometry>
        </mxCell>
        <mxCell id="zmFPVfZqV1AZNydZU7SP-110" value="" style="endArrow=classic;html=1;rounded=0;shadow=1;strokeColor=#007FFF;strokeWidth=10;align=center;verticalAlign=middle;fontFamily=Helvetica;fontSize=11;fontColor=default;labelBackgroundColor=default;flowAnimation=0;exitX=0.315;exitY=-0.004;exitDx=0;exitDy=0;exitPerimeter=0;entryX=0.366;entryY=-0.007;entryDx=0;entryDy=0;endFill=1;entryPerimeter=0;" edge="1" parent="1" source="zmFPVfZqV1AZNydZU7SP-104" target="zmFPVfZqV1AZNydZU7SP-78">
          <mxGeometry width="50" height="50" relative="1" as="geometry">
            <mxPoint x="6140" y="2290" as="sourcePoint" />
            <mxPoint x="6190" y="2240" as="targetPoint" />
            <Array as="points">
              <mxPoint x="6635" y="2020" />
              <mxPoint x="5400" y="2020" />
              <mxPoint x="5400" y="3830" />
              <mxPoint x="-1150" y="3830" />
              <mxPoint x="-1150" y="1910" />
              <mxPoint x="-232" y="1910" />
            </Array>
          </mxGeometry>
        </mxCell>
        <mxCell id="zmFPVfZqV1AZNydZU7SP-111" value="" style="endArrow=classic;html=1;rounded=0;shadow=1;strokeColor=#007FFF;strokeWidth=10;align=center;verticalAlign=middle;fontFamily=Helvetica;fontSize=11;fontColor=default;labelBackgroundColor=default;flowAnimation=0;exitX=0.434;exitY=-0.01;exitDx=0;exitDy=0;exitPerimeter=0;entryX=0.38;entryY=-0.006;entryDx=0;entryDy=0;entryPerimeter=0;endFill=1;" edge="1" parent="1" source="zmFPVfZqV1AZNydZU7SP-78" target="zmFPVfZqV1AZNydZU7SP-5">
          <mxGeometry width="50" height="50" relative="1" as="geometry">
            <mxPoint x="40" y="2080" as="sourcePoint" />
            <mxPoint x="1670" y="1950" as="targetPoint" />
            <Array as="points">
              <mxPoint x="-142" y="1910" />
              <mxPoint x="1132" y="1910" />
            </Array>
          </mxGeometry>
        </mxCell>
        <mxCell id="zmFPVfZqV1AZNydZU7SP-112" value="" style="curved=1;endArrow=classic;html=1;rounded=0;shadow=1;strokeColor=#FFFFFF;strokeWidth=10;align=center;verticalAlign=middle;fontFamily=Helvetica;fontSize=11;fontColor=default;labelBackgroundColor=default;flowAnimation=0;entryX=0.717;entryY=0.11;entryDx=0;entryDy=0;entryPerimeter=0;" edge="1" parent="1" target="zmFPVfZqV1AZNydZU7SP-6">
          <mxGeometry width="50" height="50" relative="1" as="geometry">
            <mxPoint x="7590" y="2550" as="sourcePoint" />
            <mxPoint x="6730" y="2684.688939299514" as="targetPoint" />
            <Array as="points">
              <mxPoint x="7720" y="2230" />
              <mxPoint x="6250" y="1960" />
              <mxPoint x="5250" y="3690" />
              <mxPoint x="3170" y="4090" />
            </Array>
          </mxGeometry>
        </mxCell>
        <mxCell id="zmFPVfZqV1AZNydZU7SP-116" value="&lt;font style=&quot;font-size: 50px;&quot;&gt;CV/GATE x2 Jack TS to x1 Jack TRS&lt;/font&gt;" style="text;html=1;align=center;verticalAlign=middle;resizable=0;points=[];autosize=1;strokeColor=none;fillColor=none;fontFamily=Helvetica;fontSize=11;fontColor=default;labelBackgroundColor=default;" vertex="1" parent="1">
          <mxGeometry x="7110" y="2300" width="850" height="70" as="geometry" />
        </mxCell>
        <mxCell id="zmFPVfZqV1AZNydZU7SP-117" value="&lt;font style=&quot;font-size: 50px;&quot;&gt;Jack TRS to CV/Gate Dupont&lt;/font&gt;" style="text;html=1;align=center;verticalAlign=middle;resizable=0;points=[];autosize=1;strokeColor=none;fillColor=none;fontFamily=Helvetica;fontSize=11;fontColor=default;labelBackgroundColor=default;" vertex="1" parent="1">
          <mxGeometry x="1720" y="3260" width="680" height="70" as="geometry" />
        </mxCell>
        <mxCell id="zmFPVfZqV1AZNydZU7SP-118" value="" style="curved=1;endArrow=classic;html=1;rounded=0;shadow=1;strokeColor=#FFFFFF;strokeWidth=2;align=center;verticalAlign=middle;fontFamily=Helvetica;fontSize=11;fontColor=default;labelBackgroundColor=default;flowAnimation=0;exitX=0.652;exitY=0.092;exitDx=0;exitDy=0;exitPerimeter=0;entryX=0.326;entryY=0.202;entryDx=0;entryDy=0;entryPerimeter=0;" edge="1" parent="1" source="zmFPVfZqV1AZNydZU7SP-6" target="zmFPVfZqV1AZNydZU7SP-6">
          <mxGeometry width="50" height="50" relative="1" as="geometry">
            <mxPoint x="1390" y="3140" as="sourcePoint" />
            <mxPoint x="1440" y="3090" as="targetPoint" />
            <Array as="points">
              <mxPoint x="1160" y="3020" />
            </Array>
          </mxGeometry>
        </mxCell>
        <mxCell id="zmFPVfZqV1AZNydZU7SP-119" value="" style="curved=1;endArrow=classic;html=1;rounded=0;shadow=1;strokeColor=#FFFFFF;strokeWidth=2;align=center;verticalAlign=middle;fontFamily=Helvetica;fontSize=11;fontColor=default;labelBackgroundColor=default;flowAnimation=0;exitX=0.652;exitY=0.092;exitDx=0;exitDy=0;exitPerimeter=0;entryX=0.12;entryY=0.202;entryDx=0;entryDy=0;entryPerimeter=0;" edge="1" parent="1" target="zmFPVfZqV1AZNydZU7SP-6">
          <mxGeometry width="50" height="50" relative="1" as="geometry">
            <mxPoint x="1382" y="3077" as="sourcePoint" />
            <mxPoint x="1082" y="3137" as="targetPoint" />
            <Array as="points">
              <mxPoint x="1260" y="3120" />
              <mxPoint x="970" y="3060" />
            </Array>
          </mxGeometry>
        </mxCell>
      </root>
    </mxGraphModel>
  </diagram>
</mxfile>
